<!DOCTYPE svg PUBLIC "-//W3C//DTD SVG 20010904//EN" "http://www.w3.org/TR/2001/REC-SVG-20010904/DTD/svg10.dtd">
<svg version="1.0" xmlns="http://www.w3.org/2000/svg" width="150px" height="150px" viewBox="0 0 1500 1500" preserveAspectRatio="xMidYMid meet">
<g id="layer101" fill="#00a2e8" stroke="none">
 <path d="M150 1397 c0 -8 -5 -17 -11 -19 -7 -2 21 -200 80 -567 50 -310 91 -568 91 -572 0 -5 6 -9 12 -9 7 0 178 165 380 367 l368 368 1 -360 1 -360 99 -94 c55 -52 102 -91 105 -88 10 10 -157 1131 -169 1139 -7 4 -16 8 -22 8 -5 0 -175 -165 -377 -367 l-368 -368 -1 380 -1 380 -94 89 c-54 51 -94 82 -94 73z"/>
 </g>
<g id="layer102" fill="#0ec4f8" stroke="none">
 <path d="M703 838 l-363 -363 0 -120 0 -120 365 365 366 366 -3 117 -3 117 -362 -362z"/>
 </g>

</svg>